<svg width="25" height="25" viewBox="0 0 25 25" fill="none" xmlns="http://www.w3.org/2000/svg">
<path d="M23.968 10.443C23.4891 10.1274 22.9008 9.93911 22.2688 9.93911C22.1961 9.93911 22.1242 9.94145 22.0531 9.94614L22.0625 9.94536C21.7141 9.94614 21.3734 9.97739 21.0422 10.0352L21.0781 10.0297C20.8945 8.96958 20.2773 8.08052 19.4203 7.53677L19.4055 7.52817L19.0703 7.33442L18.85 7.65317C18.5875 8.05317 18.382 8.5188 18.2594 9.01646L18.2531 9.04692C18.1836 9.30005 18.1438 9.59067 18.1438 9.89067C18.1438 10.5399 18.3313 11.1446 18.6547 11.6547L18.6469 11.6415C18.1492 11.875 17.568 12.0227 16.9563 12.0508H16.9461H1.53281C1.12969 12.0516 0.803125 12.3774 0.801563 12.7797C0.800781 12.8235 0.800781 12.8758 0.800781 12.9282C0.800781 14.2961 1.04844 15.6063 1.50156 16.8165L1.47656 16.7399C1.9125 18.0157 2.73594 19.0641 3.80469 19.7719L3.82656 19.7852C5.18906 20.4907 6.80156 20.904 8.51016 20.904C8.67188 20.904 8.83203 20.9 8.99219 20.893L8.96953 20.8938C8.98359 20.8938 9 20.8938 9.01641 20.8938C10.0102 20.8938 10.9813 20.7993 11.9227 20.6188L11.8266 20.6344C13.2289 20.3719 14.4789 19.9008 15.6117 19.2493L15.5539 19.2797C16.5359 18.7055 17.375 18.0133 18.0891 17.2079L18.0984 17.1969C19.1336 15.9782 19.9758 14.5555 20.5555 13.0055L20.5875 12.9079H20.8031C20.8461 12.9094 20.8961 12.911 20.9461 12.911C21.9039 12.911 22.7742 12.5352 23.4172 11.9227L23.4156 11.9243C23.7102 11.6446 23.9437 11.3047 24.0977 10.9235L24.1047 10.9047L24.2 10.6243L23.968 10.443ZM2.96094 11.6008H5.02812C5.12734 11.6 5.20781 11.5196 5.20781 11.4204V9.58052C5.20781 9.4813 5.12734 9.40005 5.02812 9.39927H2.96094C2.86172 9.40005 2.78125 9.48052 2.78125 9.57974V11.4204C2.78125 11.5196 2.86172 11.6008 2.96094 11.6008ZM5.80781 11.6008H7.87344C7.97266 11.6008 8.05391 11.5204 8.05391 11.4204V9.58052C8.05391 9.4813 7.97344 9.40005 7.87422 9.39927H5.80703C5.70703 9.39927 5.62578 9.48052 5.62578 9.58052V11.4204C5.62656 11.5204 5.70781 11.6008 5.80781 11.6008ZM8.69688 11.6008H10.7641C10.8633 11.6 10.9438 11.5196 10.9438 11.4204V9.58052C10.9438 9.4813 10.8633 9.40005 10.7641 9.39927H8.69688C8.59766 9.40005 8.51719 9.48052 8.51719 9.57974V11.4204C8.51719 11.5196 8.59766 11.6008 8.69766 11.6008H8.69688ZM11.5531 11.6008H13.618C13.718 11.6008 13.7984 11.5204 13.7992 11.4204V9.58052C13.7992 9.48052 13.718 9.39927 13.618 9.39927H11.5531C11.4539 9.39927 11.3727 9.47974 11.3727 9.57974V11.4204C11.3727 11.5196 11.4531 11.6008 11.5523 11.6008C11.5523 11.6008 11.5523 11.6008 11.5531 11.6008ZM5.80781 8.95396H7.87344C7.97344 8.95317 8.05391 8.87271 8.05391 8.77271V6.93286C8.05391 6.83364 7.97344 6.75239 7.87344 6.75239H5.80781C5.70781 6.75239 5.62734 6.83286 5.62656 6.93286V8.77271C5.62734 8.87271 5.70781 8.95317 5.80781 8.95396ZM8.69688 8.95396H10.7641C10.8633 8.95317 10.9438 8.87192 10.9438 8.77271V6.93286C10.9438 6.83364 10.8633 6.75239 10.7633 6.75239H8.69844C8.59922 6.75239 8.51797 6.83286 8.51797 6.93286V8.77271C8.51875 8.87271 8.59844 8.95317 8.69844 8.95396H8.69688ZM11.5531 8.95396H13.618C13.718 8.95317 13.7984 8.87271 13.7992 8.77271V6.93286C13.7984 6.83286 13.718 6.75239 13.618 6.75239H11.5531C11.4539 6.75239 11.3727 6.83286 11.3727 6.93286V8.77271C11.3727 8.87271 11.4531 8.95317 11.5531 8.95396ZM11.5531 6.30708H13.618C13.718 6.30708 13.7992 6.22583 13.7992 6.12583V4.28521C13.7984 4.18521 13.718 4.10474 13.618 4.10474H11.5531C11.4539 4.10474 11.3727 4.18521 11.3727 4.28521V6.12583C11.3727 6.22505 11.4531 6.3063 11.5523 6.3063C11.5523 6.3063 11.5523 6.3063 11.5531 6.3063V6.30708ZM14.4336 11.6008H16.4992C16.5992 11.6008 16.6797 11.5204 16.6805 11.4204V9.58052C16.6805 9.48052 16.5992 9.39927 16.4992 9.39927H14.4336C14.3336 9.39927 14.2531 9.47974 14.2531 9.57974V11.4204C14.2531 11.5196 14.3336 11.6008 14.4336 11.6008Z" fill="currentColor"/>
</svg>
