<svg width="25" height="25" viewBox="0 0 25 25" fill="none" xmlns="http://www.w3.org/2000/svg">
<path d="M23.2031 12.5C23.2031 11.0156 21.4844 9.76562 18.75 8.98438C19.4531 6.25 19.2187 4.14063 17.9687 3.35938C17.6562 3.20313 17.3438 3.125 16.9531 3.125C15.7812 3.125 14.2188 3.98438 12.6563 5.46875C11.0938 3.98438 9.60938 3.125 8.35938 3.125C7.96875 3.125 7.65625 3.20313 7.34375 3.35938C6.17187 4.14063 5.9375 6.25 6.5625 8.98438C3.90625 9.76562 2.10938 11.0938 2.10938 12.5C2.10938 13.9844 3.82812 15.2344 6.5625 16.0156C5.9375 18.75 6.17188 20.9375 7.42188 21.6406C7.73438 21.7969 8.04688 21.875 8.4375 21.875C9.60938 21.875 11.1719 21.0156 12.7344 19.5312C14.2969 21.0156 15.7812 21.875 17.0312 21.875C17.4219 21.875 17.7344 21.7969 18.0469 21.6406C19.2969 20.9375 19.5313 18.75 18.9062 16.0156C21.4844 15.2344 23.2031 13.9062 23.2031 12.5ZM16.9531 4.14063C17.1875 4.14063 17.3437 4.14062 17.4219 4.29688C18.0469 4.60938 18.2812 5.85938 18.0469 7.5C17.9687 7.89063 17.8906 8.35937 17.8125 8.75C16.9531 8.51562 16.0937 8.4375 15.0781 8.28125C14.5312 7.5 13.9844 6.79688 13.3594 6.17188C14.7656 4.84375 16.0937 4.14063 16.9531 4.14063ZM15.5469 14.1406C15.2344 14.6875 14.9219 15.2344 14.5313 15.7031C13.9063 15.7813 13.2813 15.7813 12.6563 15.7813C12.0313 15.7813 11.4063 15.7813 10.7813 15.7031C10.4688 15.2344 10.1563 14.6875 9.76563 14.1406C9.45313 13.5938 9.14062 13.0469 8.90625 12.5C9.14062 11.9531 9.45313 11.4062 9.76563 10.8594C10.0781 10.3125 10.4688 9.76563 10.7813 9.21875C11.4063 9.14063 12.0313 9.14062 12.6563 9.14062C13.2813 9.14062 13.9063 9.14063 14.5313 9.21875C14.8438 9.6875 15.2344 10.2344 15.5469 10.8594C15.8594 11.4062 16.1719 11.9531 16.4062 12.5C16.1719 13.0469 15.8594 13.5938 15.5469 14.1406ZM16.9531 13.6719C17.1875 14.2187 17.3437 14.7656 17.5 15.2344C16.9531 15.3906 16.4062 15.4687 15.8594 15.5469C16.0156 15.2344 16.25 14.9219 16.4062 14.6094C16.6406 14.375 16.7969 13.9844 16.9531 13.6719ZM12.6563 18.125C12.2656 17.7344 11.875 17.2656 11.5625 16.7969C11.9531 16.7969 12.3438 16.7969 12.6563 16.7969C13.0469 16.7969 13.4375 16.7969 13.75 16.7969C13.4375 17.2656 13.0469 17.7344 12.6563 18.125ZM9.45313 15.625C8.90625 15.5469 8.35938 15.4688 7.8125 15.3125C7.96875 14.7656 8.20312 14.2188 8.35938 13.75C8.51563 14.0625 8.67187 14.375 8.90625 14.6875C9.14062 15 9.29688 15.3125 9.45313 15.625ZM8.35938 11.3281C8.125 10.7813 7.96875 10.2344 7.73437 9.6875C8.28125 9.53125 8.82813 9.45313 9.45313 9.375C9.21875 9.6875 9.0625 10 8.82813 10.3125C8.75 10.7031 8.59375 11.0156 8.35938 11.3281ZM12.6563 6.875C13.0469 7.26563 13.3594 7.73437 13.75 8.125C13.3594 8.125 13.0469 8.125 12.6563 8.125C12.2656 8.125 11.9531 8.125 11.5625 8.125C11.9531 7.73437 12.3438 7.26563 12.6563 6.875ZM16.4062 10.3125C16.1719 10 16.0156 9.6875 15.7812 9.375C16.4063 9.45313 16.9531 9.53125 17.5 9.6875C17.3437 10.2344 17.1094 10.7813 16.875 11.3281C16.7969 11.0156 16.6406 10.7031 16.4062 10.3125ZM7.34375 7.42188C7.10937 5.78125 7.34375 4.60938 7.96875 4.21875C8.125 4.14063 8.28125 4.0625 8.4375 4.0625C9.29688 4.0625 10.5469 4.76563 11.9531 6.09375C11.4063 6.71875 10.7813 7.42188 10.2344 8.20312C9.29688 8.28125 8.35938 8.4375 7.5 8.67188C7.42188 8.28125 7.34375 7.8125 7.34375 7.42188ZM5.625 14.6094C4.14063 13.9844 3.125 13.125 3.125 12.5C3.125 11.7969 4.0625 11.0156 5.54687 10.3906C5.9375 10.2344 6.32812 10.0781 6.79688 10C7.03125 10.8594 7.34375 11.7188 7.8125 12.5781C7.42188 13.4375 7.10938 14.2969 6.875 15.0781C6.40625 14.9219 6.01562 14.7656 5.625 14.6094ZM7.89063 20.7813C7.26563 20.4688 7.03125 19.2187 7.26563 17.5781C7.34375 17.1875 7.42188 16.7187 7.5 16.25C8.35938 16.4062 9.21875 16.5625 10.1563 16.6406C10.7031 17.4219 11.3281 18.125 11.875 18.75C10.4688 20.0781 9.21875 20.7813 8.35938 20.7813C8.20312 20.8594 8.04688 20.7813 7.89063 20.7813ZM18.0469 17.5781C18.2812 19.2187 18.0469 20.3906 17.4219 20.7813C17.2656 20.8594 17.1094 20.9375 16.9531 20.9375C16.0937 20.9375 14.8438 20.2344 13.4375 18.9063C14.0625 18.2813 14.6094 17.5781 15.1562 16.7969C16.0937 16.7187 17.0312 16.5625 17.8125 16.4062C17.8906 16.7188 17.9687 17.1094 18.0469 17.5781ZM19.7656 14.6094C19.375 14.7656 18.9844 14.9219 18.5156 15C18.2812 14.2188 17.9687 13.3594 17.5781 12.5C17.9687 11.6406 18.2812 10.7812 18.5937 9.92187C18.9844 10.0781 19.4531 10.1562 19.8437 10.3125C21.3281 10.9375 22.2656 11.7187 22.2656 12.4219C22.1875 13.125 21.25 13.9844 19.7656 14.6094Z" fill="currentColor"/>
<path d="M12.7344 14.4531C13.8281 14.4531 14.6875 13.5937 14.6875 12.5C14.6875 11.4063 13.8281 10.5469 12.7344 10.5469C11.6406 10.5469 10.7812 11.4063 10.7812 12.5C10.7812 13.5937 11.6406 14.4531 12.7344 14.4531Z" fill="currentColor"/>
</svg>
