<svg width="25" height="25" viewBox="0 0 25 25" fill="none" xmlns="http://www.w3.org/2000/svg">
<g clip-path="url(#clip0_4142_71)">
<path d="M12.4999 2.08325C14.5601 2.08325 16.5741 2.69418 18.2871 3.83878C20.0001 4.98337 21.3353 6.61024 22.1237 8.51363C22.9121 10.417 23.1184 12.5115 22.7164 14.5321C22.3145 16.5527 21.3224 18.4088 19.8656 19.8656C18.4088 21.3224 16.5527 22.3145 14.5321 22.7164C12.5115 23.1184 10.417 22.9121 8.51363 22.1237C6.61024 21.3353 4.98337 20.0001 3.83878 18.2871C2.69418 16.5741 2.08325 14.5601 2.08325 12.4999C2.08325 9.73725 3.18072 7.08773 5.13422 5.13422C7.08773 3.18072 9.73725 2.08325 12.4999 2.08325ZM10.4166 15.9687C10.5732 16.4777 10.5732 17.0221 10.4166 17.5312C10.4166 17.5833 10.4166 17.6353 10.3541 17.7083C10.2916 17.7812 10.3541 17.7812 10.2812 17.8333C10.1606 18.0905 9.99872 18.3262 9.802 18.5312C9.19783 19.1978 8.33325 19.4478 7.9895 19.2395C7.64575 19.0312 7.81242 18.0728 8.49992 17.3333C9.03829 16.8022 9.65699 16.3592 10.3333 16.0208L10.4166 15.9687ZM19.0312 6.59367C18.5624 4.7395 15.4895 4.13534 12.5937 5.16659C10.7781 5.76066 9.09698 6.70564 7.64575 7.94784C6.052 9.44784 5.79158 10.7499 5.89575 11.2916C6.24992 13.2083 8.89575 14.4687 9.97908 15.3958C9.66658 15.552 7.33325 16.7291 6.77075 17.9374C6.53289 18.3148 6.45415 18.7711 6.55175 19.2064C6.64936 19.6417 6.91536 20.0206 7.29159 20.2603C7.95962 20.4215 8.66135 20.3695 9.29836 20.1117C9.93538 19.8539 10.4757 19.4032 10.8437 18.8228C11.1479 18.3543 11.3384 17.8211 11.3999 17.2659C11.4613 16.7106 11.3922 16.1487 11.1978 15.6249C11.7199 15.5028 12.2596 15.4746 12.7916 15.5416C14.6249 15.7603 14.9791 16.8958 14.8749 17.3749C14.8439 17.5451 14.7767 17.7066 14.6778 17.8486C14.579 17.9906 14.4508 18.1097 14.302 18.1978C14.177 18.2708 14.1353 18.302 14.1458 18.3645C14.1562 18.427 14.2187 18.4478 14.3228 18.427C14.607 18.3497 14.8601 18.1858 15.0467 17.958C15.2334 17.7303 15.3445 17.45 15.3645 17.1562C15.3645 16.0312 14.3228 14.7812 12.4374 14.8124C11.8869 14.7995 11.3379 14.877 10.8124 15.0416L10.7291 14.9478C9.552 13.6978 7.38533 12.8645 7.47908 11.1249C7.47908 10.5103 7.71867 8.90617 11.6458 6.95825C14.8541 5.35409 17.427 5.79159 17.8958 6.78117C18.5312 8.16659 16.5208 10.7603 13.1874 11.1353C12.8224 11.2044 12.4468 11.1926 12.0868 11.1008C11.7269 11.0091 11.3914 10.8395 11.1041 10.6041C10.927 10.427 10.9062 10.3958 10.8437 10.427C10.7812 10.4583 10.8437 10.6666 10.8437 10.7708C11.1085 11.227 11.5367 11.5658 12.0416 11.7187C13.3554 12.0022 14.7249 11.8674 15.9583 11.3333C17.9166 10.5416 19.4999 8.33325 19.0312 6.54159V6.59367Z" fill="currentColor"/>
</g>
<defs>
<clipPath id="clip0_4142_71">
<rect width="25" height="25" fill="white"/>
</clipPath>
</defs>
</svg>
