<svg width="25" height="25" viewBox="0 0 25 25" fill="none" xmlns="http://www.w3.org/2000/svg">
<g clip-path="url(#clip0_4142_66)">
<path d="M2.5 12.5V22.5H22.5V2.5H2.5V12.5ZM18.6162 11.7025C19.1244 11.8294 19.5113 12.0575 19.8694 12.425C20.0519 12.62 20.325 12.9781 20.3481 13.0663C20.3544 13.0925 19.4856 13.675 18.9581 14.0006C18.9388 14.0137 18.8606 13.9325 18.7756 13.805C18.5188 13.4306 18.2481 13.2681 17.835 13.2387C17.2294 13.1994 16.8388 13.5156 16.8419 14.0463C16.8388 14.1763 16.8681 14.3069 16.9263 14.4206C17.06 14.6975 17.3106 14.8631 18.085 15.1988C19.5175 15.8138 20.1294 16.2206 20.51 16.7969C20.9362 17.4413 21.0306 18.47 20.7444 19.2381C20.4256 20.0681 19.6375 20.6344 18.5306 20.82C18.1888 20.8819 17.375 20.8719 17.0069 20.8037C16.2031 20.6606 15.4412 20.2631 14.9725 19.7425C14.7869 19.5406 14.4287 19.01 14.4519 18.9744C14.4619 18.9612 14.5431 18.9094 14.6344 18.8569C14.7256 18.8044 15.0606 18.6094 15.3769 18.4269L15.9531 18.0919L16.0738 18.2706C16.2431 18.5275 16.6106 18.8794 16.8325 18.9962C17.4706 19.335 18.3463 19.2863 18.7794 18.8988C18.955 18.7525 19.0531 18.5275 19.04 18.3C19.04 18.0688 19.0106 17.965 18.89 17.7919C18.7338 17.5706 18.4181 17.3819 17.5162 16.9913C16.4844 16.545 16.0381 16.2719 15.635 15.8325C15.3813 15.5425 15.1925 15.2012 15.085 14.8331C15.01 14.55 14.9906 13.84 15.0494 13.5569C15.2613 12.5575 16.0163 11.8644 17.1 11.6594C17.4519 11.5912 18.2719 11.6169 18.6169 11.7019L18.6162 11.7025ZM13.9225 12.5394L13.9287 13.3563H11.3244V20.7556H9.48187V13.3563H6.88125V12.5556C6.88125 12.1094 6.89125 11.7387 6.90375 11.7287C6.91375 11.7156 8.49563 11.7094 10.4163 11.7125L13.9125 11.7225L13.9225 12.5394Z" fill="currentColor"/>
</g>
<defs>
<clipPath id="clip0_4142_66">
<rect width="20" height="20" fill="white" transform="translate(2.5 2.5)"/>
</clipPath>
</defs>
</svg>
