<svg width="25" height="25" viewBox="0 0 25 25" fill="none" xmlns="http://www.w3.org/2000/svg">
<g clip-path="url(#clip0_4142_76)">
<path d="M9.40504 11.315L9.8317 4.10086C9.8351 4.04441 9.85716 3.99069 9.89442 3.94815C9.93168 3.90561 9.98203 3.87666 10.0375 3.86586L16.9809 2.50502C17.0238 2.4966 17.0681 2.49934 17.1096 2.51298C17.1511 2.52662 17.1884 2.5507 17.218 2.58291C17.2475 2.61512 17.2683 2.65438 17.2782 2.69693C17.2882 2.73947 17.2871 2.78387 17.275 2.82586L15.9767 7.32836C15.9647 7.37027 15.9636 7.41457 15.9735 7.45703C15.9835 7.49948 16.0042 7.53868 16.0336 7.57086C16.063 7.60305 16.1002 7.62715 16.1416 7.64086C16.183 7.65458 16.2272 7.65744 16.27 7.64919L18.26 7.26586C18.3069 7.2567 18.3553 7.26086 18.3999 7.27787C18.4445 7.29488 18.4834 7.32406 18.5122 7.36208C18.541 7.4001 18.5586 7.44545 18.5629 7.49296C18.5673 7.54047 18.5582 7.58825 18.5367 7.63086L12.8784 18.9225L12.7759 19.0809C12.7538 19.1167 12.7229 19.1463 12.6862 19.1667C12.6494 19.1871 12.6079 19.1977 12.5659 19.1975C12.4184 19.1975 12.2742 19.0709 12.3117 18.89L13.2242 14.4725C13.2332 14.4293 13.2307 14.3844 13.2171 14.3424C13.2035 14.3003 13.1792 14.2625 13.1466 14.2327C13.114 14.2029 13.0742 14.182 13.0312 14.1722C12.9881 14.1624 12.9432 14.1639 12.9009 14.1767L11.7067 14.5392C11.6644 14.5521 11.6195 14.5537 11.5764 14.544C11.5333 14.5343 11.4934 14.5136 11.4607 14.4839C11.4281 14.4541 11.4037 14.4164 11.3899 14.3744C11.3762 14.3323 11.3737 14.2875 11.3825 14.2442L11.9575 11.4317C11.9663 11.3897 11.9642 11.3462 11.9517 11.3052C11.9391 11.2642 11.9164 11.227 11.8857 11.1971C11.8549 11.1672 11.8172 11.1455 11.7758 11.1341C11.7345 11.1226 11.6909 11.1218 11.6492 11.1317L9.71587 11.5784C9.67728 11.5872 9.63716 11.587 9.59869 11.5777C9.56021 11.5683 9.52444 11.5502 9.4942 11.5246C9.46396 11.4991 9.44008 11.4668 9.42446 11.4304C9.40884 11.3941 9.4019 11.3545 9.4042 11.315H9.40504ZM21.885 4.71002L16.9034 5.61669L16.45 7.18919L18.1809 6.85586C18.315 6.82912 18.4541 6.84428 18.5793 6.89929C18.7046 6.9543 18.8098 7.04649 18.8809 7.16336C18.9412 7.26055 18.9755 7.37163 18.9804 7.4859C18.9854 7.60017 18.9609 7.7138 18.9092 7.81586L13.25 19.1084L13.2392 19.1292L13.2267 19.1484L13.125 19.3067C13.0649 19.4008 12.9822 19.4784 12.8843 19.5323C12.7865 19.5861 12.6767 19.6146 12.565 19.615C12.4639 19.6145 12.3641 19.5916 12.2728 19.5481C12.1815 19.5046 12.1009 19.4415 12.0367 19.3634C11.9743 19.2861 11.9299 19.1959 11.9069 19.0993C11.8838 19.0027 11.8826 18.9021 11.9034 18.805L12.7609 14.6542L11.8275 14.9375C11.6999 14.976 11.5637 14.9758 11.4361 14.9369C11.3086 14.8981 11.1954 14.8223 11.1109 14.7192C11.0478 14.6422 11.0028 14.5522 10.979 14.4556C10.9552 14.359 10.9533 14.2583 10.9734 14.1609L11.4984 11.5942L9.8092 11.9842C9.69485 12.0104 9.57565 12.0062 9.46339 11.9722C9.35113 11.9381 9.24972 11.8753 9.1692 11.79C9.10678 11.7233 9.05857 11.6445 9.02748 11.5586C8.9964 11.4726 8.98309 11.3813 8.98837 11.29L9.31254 5.81502L3.11254 4.70669C3.01701 4.68945 2.91855 4.69983 2.82872 4.73661C2.73889 4.77339 2.66142 4.83505 2.60541 4.91433C2.54941 4.99361 2.51719 5.08723 2.51255 5.18419C2.5079 5.28115 2.53103 5.37742 2.5792 5.46169L12.15 22.2425C12.1947 22.3211 12.2595 22.3863 12.3377 22.4316C12.416 22.4769 12.5048 22.5006 12.5952 22.5002C12.6856 22.4999 12.7742 22.4755 12.8521 22.4297C12.93 22.3838 12.9943 22.3181 13.0384 22.2392L22.4217 5.46002C22.4687 5.3756 22.4908 5.27955 22.4854 5.18307C22.4799 5.08658 22.4472 4.99363 22.3909 4.91503C22.3347 4.83644 22.2573 4.77544 22.1677 4.73915C22.0782 4.70285 21.9801 4.69275 21.885 4.71002Z" fill="currentColor"/>
</g>
<defs>
<clipPath id="clip0_4142_76">
<rect width="20" height="20" fill="white" transform="translate(2.5 2.5)"/>
</clipPath>
</defs>
</svg>
